{
	"asset" : {
		"generator" : "FME 2020.2.0.0",
		"version" : "2.0"
	},
	"images" : [
		{
			"uri" : "data:image/png;base64,"
		},
		{
			"uri" : "data:image/jpeg;base64,"
		},
		{
			"uri" : "data:image/png;base64,"
		}
	],
	"samplers" : [
		{
			"wrapS" : 10497,
			"wrapT" : 10497,
			"magFilter" : 9729,
			"minFilter" : 9986
		},
		{
			"wrapS" : 10497,
			"wrapT" : 10497,
			"magFilter" : 9729,
			"minFilter" : 9986
		},
		{
			"wrapS" : 10497,
			"wrapT" : 10497,
			"magFilter" : 9729,
			"minFilter" : 9986
		}
	],
	"textures" : [
		{
			"source" : 0,
			"sampler" : 0
		},
		{
			"source" : 1,
			"sampler" : 1
		},
		{
			"source" : 2,
			"sampler" : 2
		}
	],
	"materials" : [
		{
			"name" : "metal_bar",
			"pbrMetallicRoughness" : {
				"baseColorFactor" : [ 0.5999999642372131, 0.5999999642372131, 0.5999999642372131, 1 ],
				"roughnessFactor" : 0.4822838050538475,
				"metallicFactor" : 0.8500000089406967
			}
		},
		{
			"name" : "stairs",
			"pbrMetallicRoughness" : {
				"baseColorTexture" : {
					"index" : 0,
					"texCoord" : 0
				},
				"roughnessFactor" : 0.8046875,
				"metallicFactor" : 0.7999999970197678
			},
			"alphaMode" : "BLEND"
		},
		{
			"name" : "concrete_wall",
			"pbrMetallicRoughness" : {
				"baseColorFactor" : [ 0.800000011920929, 0.800000011920929, 0.800000011920929, 1 ],
				"roughnessFactor" : 0.8046875,
				"metallicFactor" : 0.7999999970197678
			}
		},
		{
			"name" : "floor",
			"pbrMetallicRoughness" : {
				"baseColorTexture" : {
					"index" : 1,
					"texCoord" : 0
				},
				"roughnessFactor" : 0.5159422455665326,
				"metallicFactor" : 0.9828571436234883
			}
		},
		{
			"name" : "floor_concrete",
			"pbrMetallicRoughness" : {
				"baseColorTexture" : {
					"index" : 2,
					"texCoord" : 0
				},
				"roughnessFactor" : 0.8046875,
				"metallicFactor" : 0.7999999970197678
			}
		},
		{
			"name" : "ceilling_concrete",
			"pbrMetallicRoughness" : {
				"baseColorFactor" : [ 1, 1, 1, 1 ],
				"roughnessFactor" : 0.9106965651967965,
				"metallicFactor" : 0.880952388048172
			}
		},
		{
			"name" : "window_metal",
			"pbrMetallicRoughness" : {
				"baseColorFactor" : [ 0.800000011920929, 0.800000011920929, 0.800000011920929, 1 ],
				"roughnessFactor" : 0.8046875,
				"metallicFactor" : 0.7999999970197678
			}
		},
		{
			"name" : "window_glass",
			"pbrMetallicRoughness" : {
				"baseColorFactor" : [ 0.5564219355583191, 0.6962131261825562, 0.8000000715255737, 1 ],
				"roughnessFactor" : 0.560546875,
				"metallicFactor" : 0.828947072227796
			}
		},
		{
			"name" : "automated_door_mount",
			"pbrMetallicRoughness" : {
				"baseColorFactor" : [ 0.800000011920929, 0.800000011920929, 0.800000011920929, 1 ],
				"roughnessFactor" : 0.8046875,
				"metallicFactor" : 0.7999999970197678
			}
		},
		{
			"name" : "default_material",
			"pbrMetallicRoughness" : {
				"baseColorFactor" : [ 0.8, 0.8, 0.8, 1 ],
				"roughnessFactor" : 0.30000000000000004,
				"metallicFactor" : 0.5
			}
		}
	],
	"meshes" : [
		{
			"primitives" : [
				{
					"attributes" : {
						"NORMAL" : 1,
						"POSITION" : 0
					},
					"indices" : 2,
					"material" : 2,
					"mode" : 4
				}
			]
		},
		{
			"primitives" : [
				{
					"attributes" : {
						"NORMAL" : 4,
						"POSITION" : 3,
						"TEXCOORD_0" : 5
					},
					"indices" : 6,
					"material" : 3,
					"mode" : 4
				},
				{
					"attributes" : {
						"NORMAL" : 4,
						"POSITION" : 3,
						"TEXCOORD_0" : 5
					},
					"indices" : 7,
					"material" : 4,
					"mode" : 4
				},
				{
					"attributes" : {
						"NORMAL" : 4,
						"POSITION" : 3
					},
					"indices" : 8,
					"material" : 5,
					"mode" : 4
				}
			]
		},
		{
			"primitives" : [
				{
					"attributes" : {
						"NORMAL" : 10,
						"POSITION" : 9
					},
					"indices" : 11,
					"material" : 2,
					"mode" : 4
				}
			]
		},
		{
			"primitives" : [
				{
					"attributes" : {
						"NORMAL" : 13,
						"POSITION" : 12
					},
					"indices" : 14,
					"material" : 5,
					"mode" : 4
				}
			]
		},
		{
			"primitives" : [
				{
					"attributes" : {
						"NORMAL" : 16,
						"POSITION" : 15
					},
					"indices" : 17,
					"material" : 6,
					"mode" : 4
				},
				{
					"attributes" : {
						"NORMAL" : 16,
						"POSITION" : 15
					},
					"indices" : 18,
					"material" : 7,
					"mode" : 4
				},
				{
					"attributes" : {
						"NORMAL" : 16,
						"POSITION" : 15
					},
					"indices" : 19,
					"material" : 8,
					"mode" : 4
				}
			]
		}
	],
	"nodes" : [
		{
			"name" : "stairs",
			"matrix" : [ 0.05478185415267944, 0, 0, 0, 0, 0.05478185415267944, -3.354421116971801e-18, 0, 0, 3.354421116971801e-18, 0.05478185415267944, 0, -142.3044891357422, 648.24609375, 1011.84033203125, 1 ],
			"children" : [ 1 ]
		},
		{},
		{
			"name" : "BigWalls.001",
			"matrix" : [ 1, 0, 0, 0, 0, 1, -6.123233995736766e-17, 0, 0, 6.123233995736766e-17, 1, 0, 0, 661.7009887695312, 0, 1 ],
			"children" : [ 3 ]
		},
		{
			"mesh" : 0
		},
		{
			"name" : "Floor.001",
			"matrix" : [ 1, 0, 0, 0, 0, 1, -6.123233995736766e-17, 0, 0, 6.123233995736766e-17, 1, 0, 0, 0, 0, 1 ],
			"children" : [ 5 ]
		},
		{
			"mesh" : 1
		},
		{
			"name" : "SmallWals.001",
			"matrix" : [ 1, 0, 0, 0, 0, 1, -6.123233995736766e-17, 0, 0, 6.123233995736766e-17, 1, 0, 0, 661.7009887695312, 0, 1 ],
			"children" : [ 7 ]
		},
		{
			"mesh" : 2
		},
		{
			"name" : "Ceilling.001",
			"matrix" : [ 1, 0, 0, 0, 0, 1, -6.123233995736766e-17, 0, 0, 6.123233995736766e-17, 1, 0, 0, 0, 0, 1 ],
			"children" : [ 9 ]
		},
		{
			"mesh" : 3
		},
		{
			"name" : "windows.001",
			"matrix" : [ 7.277656313783518e-8, 5.90252084046034e-17, 0.9639548063278173, 0, 7.346839692639276e-40, 1, -6.123233995736766e-17, 0, -0.9999999999999973, 4.622913051246587e-24, 7.549789954891876e-8, 0, -452.8761901855469, 809.5536499023438, 688.8071899414062, 1 ],
			"children" : [ 11 ]
		},
		{
			"mesh" : 4
		}
	],
	"scenes" : [
		{
			"nodes" : [ 0, 2, 4, 6, 8, 10 ]
		}
	],
	"scene" : 0,
	"accessors" : [
		{
			"bufferView" : 0,
			"byteOffset" : 0,
			"componentType" : 5126,
			"count" : 1466,
			"type" : "VEC3",
			"min" : [ -7728.0947265625, -561.7009887695312, -1320.2862548828125 ],
			"max" : [ 2778.848876953125, 538.2990112304688, 1320.2862548828125 ]
		},
		{
			"bufferView" : 1,
			"byteOffset" : 0,
			"componentType" : 5126,
			"count" : 1466,
			"type" : "VEC3",
			"min" : [ -1, -1, -1 ],
			"max" : [ 1, 1, 1 ]
		},
		{
			"bufferView" : 2,
			"byteOffset" : 0,
			"componentType" : 5123,
			"count" : 2592,
			"type" : "SCALAR",
			"min" : [ 0 ],
			"max" : [ 1465 ]
		},
		{
			"bufferView" : 3,
			"byteOffset" : 0,
			"componentType" : 5126,
			"count" : 504,
			"type" : "VEC3",
			"min" : [ -7710.00048828125, 74.99996948242188, -1320.0001220703125 ],
			"max" : [ 2791.347412109375, 650.0001831054688, 1320.0001220703125 ]
		},
		{
			"bufferView" : 4,
			"byteOffset" : 0,
			"componentType" : 5126,
			"count" : 504,
			"type" : "VEC3",
			"min" : [ -1, -1, -1 ],
			"max" : [ 1, 1, 1 ]
		},
		{
			"bufferView" : 5,
			"byteOffset" : 0,
			"componentType" : 5126,
			"count" : 504,
			"type" : "VEC2",
			"min" : [ -37.67213821411133, -6.100000381469727 ],
			"max" : [ 14.834603309631348, 7.100000381469727 ]
		},
		{
			"bufferView" : 6,
			"byteOffset" : 0,
			"componentType" : 5121,
			"count" : 204,
			"type" : "SCALAR",
			"min" : [ 0 ],
			"max" : [ 100 ]
		},
		{
			"bufferView" : 7,
			"byteOffset" : 0,
			"componentType" : 5123,
			"count" : 228,
			"type" : "SCALAR",
			"min" : [ 46 ],
			"max" : [ 503 ]
		},
		{
			"bufferView" : 8,
			"byteOffset" : 0,
			"componentType" : 5123,
			"count" : 528,
			"type" : "SCALAR",
			"min" : [ 58 ],
			"max" : [ 457 ]
		},
		{
			"bufferView" : 9,
			"byteOffset" : 0,
			"componentType" : 5126,
			"count" : 1110,
			"type" : "VEC3",
			"min" : [ -1730.0001220703125, -204.70114135742188, -1320.2862548828125 ],
			"max" : [ 2929.178955078125, 488.2989807128906, 1320.2862548828125 ]
		},
		{
			"bufferView" : 10,
			"byteOffset" : 0,
			"componentType" : 5126,
			"count" : 1110,
			"type" : "VEC3",
			"min" : [ -1, -1, -1 ],
			"max" : [ 1, 1, 1 ]
		},
		{
			"bufferView" : 11,
			"byteOffset" : 0,
			"componentType" : 5123,
			"count" : 2232,
			"type" : "SCALAR",
			"min" : [ 0 ],
			"max" : [ 1109 ]
		},
		{
			"bufferView" : 12,
			"byteOffset" : 0,
			"componentType" : 5126,
			"count" : 264,
			"type" : "VEC3",
			"min" : [ -7710, 575.0001831054688, -1290 ],
			"max" : [ 2939.178955078125, 1170, 1290 ]
		},
		{
			"bufferView" : 13,
			"byteOffset" : 0,
			"componentType" : 5126,
			"count" : 264,
			"type" : "VEC3",
			"min" : [ -1, -1, -1 ],
			"max" : [ 1, 1, 1 ]
		},
		{
			"bufferView" : 14,
			"byteOffset" : 0,
			"componentType" : 5123,
			"count" : 456,
			"type" : "SCALAR",
			"min" : [ 0 ],
			"max" : [ 263 ]
		},
		{
			"bufferView" : 15,
			"byteOffset" : 0,
			"componentType" : 5126,
			"count" : 54186,
			"type" : "VEC3",
			"min" : [ -2082.96923828125, -709.5536499023438, -3390.10546875 ],
			"max" : [ 653.8417358398438, 390.000244140625, 7142.4013671875 ]
		},
		{
			"bufferView" : 16,
			"byteOffset" : 0,
			"componentType" : 5126,
			"count" : 54186,
			"type" : "VEC3",
			"min" : [ -1, -1, -1 ],
			"max" : [ 1, 1, 1 ]
		},
		{
			"bufferView" : 17,
			"byteOffset" : 0,
			"componentType" : 5123,
			"count" : 69180,
			"type" : "SCALAR",
			"min" : [ 0 ],
			"max" : [ 54185 ]
		},
		{
			"bufferView" : 18,
			"byteOffset" : 0,
			"componentType" : 5123,
			"count" : 10152,
			"type" : "SCALAR",
			"min" : [ 32 ],
			"max" : [ 54070 ]
		},
		{
			"bufferView" : 19,
			"byteOffset" : 0,
			"componentType" : 5123,
			"count" : 14148,
			"type" : "SCALAR",
			"min" : [ 43375 ],
			"max" : [ 52184 ]
		}
	],
	"bufferViews" : [
		{
			"buffer" : 0,
			"byteOffset" : 0,
			"byteLength" : 17592,
			"target" : 34962
		},
		{
			"buffer" : 0,
			"byteOffset" : 17592,
			"byteLength" : 17592,
			"target" : 34962
		},
		{
			"buffer" : 0,
			"byteOffset" : 35184,
			"byteLength" : 5184,
			"target" : 34963
		},
		{
			"buffer" : 0,
			"byteOffset" : 40368,
			"byteLength" : 6048,
			"target" : 34962
		},
		{
			"buffer" : 0,
			"byteOffset" : 46416,
			"byteLength" : 6048,
			"target" : 34962
		},
		{
			"buffer" : 0,
			"byteOffset" : 52464,
			"byteLength" : 4032,
			"target" : 34962
		},
		{
			"buffer" : 0,
			"byteOffset" : 56496,
			"byteLength" : 204,
			"target" : 34963
		},
		{
			"buffer" : 0,
			"byteOffset" : 56700,
			"byteLength" : 456,
			"target" : 34963
		},
		{
			"buffer" : 0,
			"byteOffset" : 57156,
			"byteLength" : 1056,
			"target" : 34963
		},
		{
			"buffer" : 0,
			"byteOffset" : 58212,
			"byteLength" : 13320,
			"target" : 34962
		},
		{
			"buffer" : 0,
			"byteOffset" : 71532,
			"byteLength" : 13320,
			"target" : 34962
		},
		{
			"buffer" : 0,
			"byteOffset" : 84852,
			"byteLength" : 4464,
			"target" : 34963
		},
		{
			"buffer" : 0,
			"byteOffset" : 89316,
			"byteLength" : 3168,
			"target" : 34962
		},
		{
			"buffer" : 0,
			"byteOffset" : 92484,
			"byteLength" : 3168,
			"target" : 34962
		},
		{
			"buffer" : 0,
			"byteOffset" : 95652,
			"byteLength" : 912,
			"target" : 34963
		},
		{
			"buffer" : 0,
			"byteOffset" : 96564,
			"byteLength" : 650232,
			"target" : 34962
		},
		{
			"buffer" : 0,
			"byteOffset" : 746796,
			"byteLength" : 650232,
			"target" : 34962
		},
		{
			"buffer" : 0,
			"byteOffset" : 1397028,
			"byteLength" : 138360,
			"target" : 34963
		},
		{
			"buffer" : 0,
			"byteOffset" : 1535388,
			"byteLength" : 20304,
			"target" : 34963
		},
		{
			"buffer" : 0,
			"byteOffset" : 1555692,
			"byteLength" : 28296,
			"target" : 34963
		}
	],
	"buffers" : [
		{
			"uri" : "data:application/octet-stream;base64,",
			"byteLength" : 1583988
		}
	]
}